<svg xmlns="http://www.w3.org/2000/svg" viewBox="0 0 1100 360" width="1100" height="360" font-family="'Segoe UI',system-ui,sans-serif">
<defs>
  <linearGradient id="card" x1="0" y1="0" x2="0" y2="1">
    <stop offset="0" stop-color="#ffffff"/><stop offset="1" stop-color="#e9ecf1"/></linearGradient>
  <linearGradient id="vol" gradientUnits="userSpaceOnUse" x1="830" y1="30" x2="830" y2="353">
    <stop offset="0" stop-color="#fbfcfe"/><stop offset="0.38" stop-color="#d5dae2"/>
    <stop offset="0.72" stop-color="#a7aebc"/><stop offset="1" stop-color="#7c8394"/></linearGradient>
  <radialGradient id="spec" cx="0.34" cy="0.26" r="0.5">
    <stop offset="0" stop-color="#ffffff" stop-opacity="0.95"/>
    <stop offset="0.5" stop-color="#ffffff" stop-opacity="0.25"/>
    <stop offset="1" stop-color="#ffffff" stop-opacity="0"/></radialGradient>
  <radialGradient id="ao" cx="0.5" cy="0.9" r="0.6">
    <stop offset="0" stop-color="#5b6172" stop-opacity="0.45"/>
    <stop offset="1" stop-color="#5b6172" stop-opacity="0"/></radialGradient>
  <radialGradient id="grnd" cx="0.5" cy="0.5" r="0.5">
    <stop offset="0" stop-color="#2a2f3a" stop-opacity="0.30"/>
    <stop offset="1" stop-color="#2a2f3a" stop-opacity="0"/></radialGradient>
  <style>
    @keyframes bob{0%,100%{transform:translateY(0) rotate(-.4deg)}50%{transform:translateY(-10px) rotate(.4deg)}}
    @keyframes gshadow{0%,100%{opacity:.9;transform:scale(1)}50%{opacity:.55;transform:scale(.82)}}
    @keyframes blink{0%,92%,100%{transform:scaleY(1)}96%{transform:scaleY(.08)}}
    @keyframes spec{0%,100%{transform:translate(0,0)}50%{transform:translate(6px,4px)}}
    @keyframes swA{0%,100%{transform:rotate(0)}50%{transform:rotate(3deg)}}
    @keyframes swB{0%,100%{transform:rotate(0)}50%{transform:rotate(-3deg)}}
    @keyframes tap{0%,100%{transform:translateY(0)}50%{transform:translateY(3px)}}
    @keyframes rise{0%{opacity:0;transform:translateY(16px)}25%{opacity:.9}100%{opacity:0;transform:translateY(-30px)}}
    @keyframes cur{0%,49%{opacity:1}50%,100%{opacity:0}}
    .oct{animation:bob 5.5s ease-in-out infinite;transform-origin:830px 148px}
    .grnd{animation:gshadow 5.5s ease-in-out infinite;transform-origin:830px 358px}
    .spec{animation:spec 5.5s ease-in-out infinite}
    .lid{transform-box:fill-box;transform-origin:center;animation:blink 6s ease-in-out infinite}
    .ten{transform-box:fill-box;transform-origin:50% 3%}
    .tr0,.tl1,[class*=tr0],[class*=tl1]{animation:swA 4.2s ease-in-out infinite}
    .tl0,.tr1,[class*=tl0],[class*=tr1]{animation:swB 4.6s ease-in-out infinite}
    .tr3,.tl2,[class*=tr3],[class*=tl2]{animation:tap 1.6s ease-in-out infinite}
    .tr2,.tl3,[class*=tr2],[class*=tl3]{animation:swB 4.0s ease-in-out infinite .4s}
    .p{animation:rise 3.6s ease-in-out infinite}
    .p2{animation:rise 4.4s ease-in-out infinite 1.1s}
    .p3{animation:rise 4.0s ease-in-out infinite 2.2s}
    .cur{animation:cur 1.1s steps(1) infinite}
  </style>
</defs>

<rect x="1" y="1" width="1098" height="358" rx="20" fill="url(#card)" stroke="#e0e3e9"/>
<g fill="#c6cbd5"><circle cx="28" cy="26" r="2"/><circle cx="44" cy="26" r="2"/><circle cx="28" cy="42" r="2"/>
  <circle cx="1072" cy="334" r="2"/><circle cx="1056" cy="334" r="2"/><circle cx="1072" cy="318" r="2"/></g>

<!-- ground shadow -->
<ellipse class="grnd" cx="830" cy="360" rx="128" ry="20" fill="url(#grnd)"/>

<!-- floating code glyphs (depth + motion) -->
<g font-family="'Courier New',monospace" font-weight="bold" fill="#9aa1b0">
  <text class="p"  x="680" y="120" font-size="20">&#60;/&#62;</text>
  <text class="p2" x="980" y="150" font-size="16">{ }</text>
  <text class="p3" x="710" y="70"  font-size="14">01</text>
  <text class="p2" x="950" y="90"  font-size="13">def</text>
</g>

<g class="oct">
  <g><path class="ten tr0" d="M823.5,193.0 L823.6,199.7 L823.9,206.1 L824.4,212.3 L825.1,218.3 L825.9,224.0 L827.0,229.4 L828.1,234.7 L829.4,239.7 L830.8,244.4 L832.2,248.9 L833.7,253.2 L835.2,257.2 L836.7,261.1 L838.2,264.7 L839.6,268.0 L841.0,271.2 L842.3,274.1 L843.5,276.8 L844.7,279.2 L845.6,281.5 L846.5,283.5 L847.2,285.2 L847.8,286.7 L848.3,288.0 L848.7,289.1 L849.0,290.1 L849.1,291.1 L849.1,292.2 L848.8,293.4 L848.1,294.9 L847.0,296.5 L845.5,298.6 L846.5,301.4 L849.5,301.5 L852.2,300.9 L854.7,299.9 L857.0,298.4 L858.9,296.5 L860.6,294.2 L861.8,291.7 L862.6,289.0 L863.2,286.2 L863.4,283.3 L863.4,280.4 L863.3,277.5 L863.0,274.4 L862.6,271.3 L862.1,268.1 L861.5,264.8 L860.9,261.4 L860.2,257.9 L859.5,254.3 L858.8,250.6 L858.2,246.7 L857.5,242.7 L856.9,238.6 L856.4,234.3 L856.0,230.0 L855.6,225.4 L855.4,220.8 L855.3,215.9 L855.3,210.9 L855.5,205.8 L855.9,200.5 L856.5,195.0 Z" fill="url(#vol)" stroke="#0f1319" stroke-width="2.3" stroke-linejoin="round"/>
    <path class="tr0" d="M840.0,187.4 L839.7,193.6 L839.7,199.6 L839.8,205.4 L840.2,211.0 L840.7,216.4 L841.3,221.6 L842.0,226.7 L842.9,231.5 L843.8,236.1 L844.9,240.6 L845.9,244.9 L847.0,249.0 L848.1,252.9 L849.2,256.7 L850.2,260.3 L851.2,263.7 L852.2,267.0 L853.1,270.1 L853.8,273.0 L854.5,275.8 L855.0,278.5 L855.3,281.0 L855.5,283.4 L855.5,285.6 L855.2,287.7 L854.8,289.7 L854.0,291.6 L853.0,293.3 L851.8,294.9 L850.2,296.4 L848.3,297.9 L846.0,299.4" fill="none" stroke="#ffffff" stroke-opacity="0.5" stroke-width="2.4" stroke-linecap="round"/>
    <ellipse class="tr0" cx="852.5" cy="255.6" rx="2.9" ry="2.3" fill="#eef1f5" stroke="#0f1319" stroke-width="1.1"/>
    <ellipse class="tr0" cx="856.6" cy="271.8" rx="2.4" ry="1.9" fill="#eef1f5" stroke="#0f1319" stroke-width="1.1"/>
    <ellipse class="tr0" cx="858.5" cy="283.3" rx="2.0" ry="1.6" fill="#eef1f5" stroke="#0f1319" stroke-width="1.1"/>
    <ellipse class="tr0" cx="857.4" cy="292.2" rx="1.5" ry="1.2" fill="#eef1f5" stroke="#0f1319" stroke-width="1.1"/>
    <ellipse class="tr0" cx="853.3" cy="297.7" rx="1.2" ry="1.0" fill="#eef1f5" stroke="#0f1319" stroke-width="1.1"/>
    <path class="ten tl0" d="M803.5,195.0 L804.1,200.5 L804.5,205.8 L804.7,210.9 L804.7,215.9 L804.6,220.8 L804.4,225.4 L804.0,230.0 L803.6,234.3 L803.1,238.6 L802.5,242.7 L801.8,246.7 L801.2,250.6 L800.5,254.3 L799.8,257.9 L799.1,261.4 L798.5,264.8 L797.9,268.1 L797.4,271.3 L797.0,274.4 L796.7,277.5 L796.6,280.4 L796.6,283.3 L796.8,286.2 L797.4,289.0 L798.2,291.7 L799.4,294.2 L801.1,296.5 L803.0,298.4 L805.3,299.9 L807.8,300.9 L810.5,301.5 L813.5,301.4 L814.5,298.6 L813.0,296.5 L811.9,294.9 L811.2,293.4 L810.9,292.2 L810.9,291.1 L811.0,290.1 L811.3,289.1 L811.7,288.0 L812.2,286.7 L812.8,285.2 L813.5,283.5 L814.4,281.5 L815.3,279.2 L816.5,276.8 L817.7,274.1 L819.0,271.2 L820.4,268.0 L821.8,264.7 L823.3,261.1 L824.8,257.2 L826.3,253.2 L827.8,248.9 L829.2,244.4 L830.6,239.7 L831.9,234.7 L833.0,229.4 L834.1,224.0 L834.9,218.3 L835.6,212.3 L836.1,206.1 L836.4,199.7 L836.5,193.0 Z" fill="url(#vol)" stroke="#0f1319" stroke-width="2.3" stroke-linejoin="round"/>
    <path class="tl0" d="M820.0,187.4 L820.3,193.6 L820.3,199.6 L820.2,205.4 L819.8,211.0 L819.3,216.4 L818.7,221.6 L818.0,226.7 L817.1,231.5 L816.2,236.1 L815.1,240.6 L814.1,244.9 L813.0,249.0 L811.9,252.9 L810.8,256.7 L809.8,260.3 L808.8,263.7 L807.8,267.0 L806.9,270.1 L806.2,273.0 L805.5,275.8 L805.0,278.5 L804.7,281.0 L804.5,283.4 L804.5,285.6 L804.8,287.7 L805.2,289.7 L806.0,291.6 L807.0,293.3 L808.2,294.9 L809.8,296.4 L811.7,297.9 L814.0,299.4" fill="none" stroke="#ffffff" stroke-opacity="0.5" stroke-width="2.4" stroke-linecap="round"/>
    <ellipse class="tl0" cx="816.7" cy="258.3" rx="2.9" ry="2.3" fill="#eef1f5" stroke="#0f1319" stroke-width="1.1"/>
    <ellipse class="tl0" cx="811.1" cy="274.0" rx="2.4" ry="1.9" fill="#eef1f5" stroke="#0f1319" stroke-width="1.1"/>
    <ellipse class="tl0" cx="808.0" cy="284.2" rx="2.0" ry="1.6" fill="#eef1f5" stroke="#0f1319" stroke-width="1.1"/>
    <ellipse class="tl0" cx="807.5" cy="290.8" rx="1.5" ry="1.2" fill="#eef1f5" stroke="#0f1319" stroke-width="1.1"/>
    <ellipse class="tl0" cx="809.2" cy="295.1" rx="1.2" ry="1.0" fill="#eef1f5" stroke="#0f1319" stroke-width="1.1"/>
    <path class="ten tr1" d="M847.8,202.2 L850.7,207.9 L853.7,213.4 L856.8,218.7 L859.9,223.7 L863.0,228.4 L866.2,232.9 L869.3,237.2 L872.5,241.2 L875.6,245.1 L878.7,248.7 L881.7,252.2 L884.7,255.4 L887.5,258.5 L890.3,261.4 L893.0,264.2 L895.6,266.8 L898.1,269.3 L900.4,271.6 L902.5,273.8 L904.5,275.9 L906.4,277.9 L908.1,279.8 L909.6,281.5 L910.9,283.2 L912.1,284.8 L913.1,286.4 L914.0,287.9 L914.8,289.5 L915.4,291.2 L915.8,293.0 L916.2,295.0 L916.6,297.4 L919.4,298.6 L921.4,296.5 L922.8,294.1 L923.7,291.6 L924.3,288.9 L924.5,286.1 L924.4,283.3 L924.0,280.4 L923.3,277.5 L922.4,274.7 L921.3,271.8 L920.0,269.0 L918.5,266.1 L916.9,263.2 L915.2,260.2 L913.3,257.2 L911.4,254.2 L909.4,251.1 L907.3,247.9 L905.1,244.6 L902.9,241.2 L900.7,237.7 L898.4,234.1 L896.1,230.4 L893.8,226.5 L891.5,222.5 L889.2,218.4 L886.9,214.1 L884.7,209.6 L882.5,204.9 L880.3,200.1 L878.2,195.1 L876.2,189.8 Z" fill="url(#vol)" stroke="#0f1319" stroke-width="2.3" stroke-linejoin="round"/>
    <path class="tr1" d="M862.0,189.8 L864.5,195.4 L867.0,200.8 L869.6,206.0 L872.3,210.9 L875.0,215.7 L877.7,220.2 L880.4,224.5 L883.1,228.7 L885.8,232.7 L888.5,236.5 L891.2,240.2 L893.8,243.7 L896.3,247.1 L898.8,250.3 L901.2,253.4 L903.5,256.5 L905.7,259.4 L907.8,262.2 L909.7,264.9 L911.5,267.6 L913.2,270.2 L914.7,272.7 L916.0,275.2 L917.1,277.7 L918.1,280.1 L918.8,282.5 L919.3,284.9 L919.5,287.3 L919.5,289.7 L919.3,292.2 L918.8,294.7 L918.0,297.4" fill="none" stroke="#ffffff" stroke-opacity="0.5" stroke-width="2.4" stroke-linecap="round"/>
    <ellipse class="tr1" cx="899.4" cy="248.1" rx="2.7" ry="2.2" fill="#eef1f5" stroke="#0f1319" stroke-width="1.1"/>
    <ellipse class="tr1" cx="910.0" cy="262.5" rx="2.3" ry="1.8" fill="#eef1f5" stroke="#0f1319" stroke-width="1.1"/>
    <ellipse class="tr1" cx="917.0" cy="273.6" rx="1.9" ry="1.5" fill="#eef1f5" stroke="#0f1319" stroke-width="1.1"/>
    <ellipse class="tr1" cx="920.8" cy="283.2" rx="1.4" ry="1.2" fill="#eef1f5" stroke="#0f1319" stroke-width="1.1"/>
    <ellipse class="tr1" cx="921.3" cy="291.0" rx="1.2" ry="1.0" fill="#eef1f5" stroke="#0f1319" stroke-width="1.1"/>
    <path class="ten tl1" d="M783.8,189.8 L781.8,195.1 L779.7,200.1 L777.5,204.9 L775.3,209.6 L773.1,214.1 L770.8,218.4 L768.5,222.5 L766.2,226.5 L763.9,230.4 L761.6,234.1 L759.3,237.7 L757.1,241.2 L754.9,244.6 L752.7,247.9 L750.6,251.1 L748.6,254.2 L746.7,257.2 L744.8,260.2 L743.1,263.2 L741.5,266.1 L740.0,269.0 L738.7,271.8 L737.6,274.7 L736.7,277.5 L736.0,280.4 L735.6,283.3 L735.5,286.1 L735.7,288.9 L736.3,291.6 L737.2,294.1 L738.6,296.5 L740.6,298.6 L743.4,297.4 L743.8,295.0 L744.2,293.0 L744.6,291.2 L745.2,289.5 L746.0,287.9 L746.9,286.4 L747.9,284.8 L749.1,283.2 L750.4,281.5 L751.9,279.8 L753.6,277.9 L755.5,275.9 L757.5,273.8 L759.6,271.6 L761.9,269.3 L764.4,266.8 L767.0,264.2 L769.7,261.4 L772.5,258.5 L775.3,255.4 L778.3,252.2 L781.3,248.7 L784.4,245.1 L787.5,241.2 L790.7,237.2 L793.8,232.9 L797.0,228.4 L800.1,223.7 L803.2,218.7 L806.3,213.4 L809.3,207.9 L812.2,202.2 Z" fill="url(#vol)" stroke="#0f1319" stroke-width="2.3" stroke-linejoin="round"/>
    <path class="tl1" d="M798.0,189.8 L795.5,195.4 L793.0,200.8 L790.4,206.0 L787.7,210.9 L785.0,215.7 L782.3,220.2 L779.6,224.5 L776.9,228.7 L774.2,232.7 L771.5,236.5 L768.8,240.2 L766.2,243.7 L763.7,247.1 L761.2,250.3 L758.8,253.4 L756.5,256.5 L754.3,259.4 L752.2,262.2 L750.3,264.9 L748.5,267.6 L746.8,270.2 L745.3,272.7 L744.0,275.2 L742.9,277.7 L741.9,280.1 L741.2,282.5 L740.7,284.9 L740.5,287.3 L740.5,289.7 L740.7,292.2 L741.2,294.7 L742.0,297.4" fill="none" stroke="#ffffff" stroke-opacity="0.5" stroke-width="2.4" stroke-linecap="round"/>
    <ellipse class="tl1" cx="767.7" cy="253.7" rx="2.7" ry="2.2" fill="#eef1f5" stroke="#0f1319" stroke-width="1.1"/>
    <ellipse class="tl1" cx="756.0" cy="267.2" rx="2.3" ry="1.8" fill="#eef1f5" stroke="#0f1319" stroke-width="1.1"/>
    <ellipse class="tl1" cx="748.3" cy="276.9" rx="1.9" ry="1.5" fill="#eef1f5" stroke="#0f1319" stroke-width="1.1"/>
    <ellipse class="tl1" cx="743.8" cy="284.7" rx="1.4" ry="1.2" fill="#eef1f5" stroke="#0f1319" stroke-width="1.1"/>
    <ellipse class="tl1" cx="742.2" cy="290.9" rx="1.2" ry="1.0" fill="#eef1f5" stroke="#0f1319" stroke-width="1.1"/></g>
  <!-- head: volumetric fill + AO + gloss -->
  <path d="M740,176 C724,70 788,30 830,30 C872,30 936,70 920,176 C900,228 760,228 740,176 Z" fill="url(#vol)" stroke="#0f1319" stroke-width="2.6" stroke-linejoin="round"/>
  <path d="M740,176 C724,70 788,30 830,30 C872,30 936,70 920,176 C900,228 760,228 740,176 Z" fill="url(#ao)"/>
  <ellipse class="spec" cx="800" cy="96" rx="34" ry="26" fill="url(#spec)"/>
  <path d="M746,154 C734,78 790,40 830,38" fill="none" stroke="#ffffff" stroke-opacity="0.55" stroke-width="3"/>
  <g><path class="ten tr2" d="M873.9,201.4 L879.6,205.2 L885.2,209.0 L890.7,212.9 L896.0,216.8 L901.3,220.7 L906.4,224.5 L911.3,228.3 L916.1,232.1 L920.8,235.7 L925.4,239.3 L929.8,242.7 L934.0,246.0 L938.1,249.1 L942.1,252.0 L945.9,254.7 L949.6,257.2 L953.1,259.5 L956.5,261.5 L959.8,263.3 L963.0,264.7 L966.1,265.8 L969.3,266.6 L972.5,266.9 L975.7,266.5 L978.8,265.3 L981.4,263.3 L983.3,260.7 L984.3,257.9 L984.8,254.9 L984.8,251.6 L984.5,248.0 L983.5,244.0 L980.5,244.0 L979.3,247.7 L978.3,250.7 L977.3,252.9 L976.2,254.3 L975.3,255.0 L974.7,254.9 L974.6,254.5 L974.5,254.1 L974.1,253.7 L973.3,253.1 L972.1,252.2 L970.4,251.0 L968.4,249.4 L966.2,247.5 L963.7,245.3 L960.9,242.8 L957.9,240.0 L954.7,236.9 L951.3,233.6 L947.7,230.1 L944.0,226.4 L940.0,222.5 L935.8,218.5 L931.4,214.3 L926.9,210.0 L922.2,205.7 L917.2,201.2 L912.2,196.7 L906.9,192.2 L901.5,187.6 L895.9,183.1 L890.1,178.6 Z" fill="url(#vol)" stroke="#0f1319" stroke-width="2.3" stroke-linejoin="round"/>
    <path class="tr2" d="M882.0,184.4 L887.7,188.7 L893.3,193.0 L898.8,197.3 L904.1,201.6 L909.3,205.9 L914.3,210.2 L919.1,214.4 L923.8,218.5 L928.3,222.5 L932.7,226.4 L936.9,230.2 L940.9,233.8 L944.7,237.3 L948.4,240.5 L951.9,243.5 L955.2,246.3 L958.4,248.9 L961.4,251.1 L964.1,253.1 L966.7,254.7 L969.1,256.1 L971.3,257.0 L973.3,257.6 L975.1,257.8 L976.7,257.6 L978.1,257.0 L979.3,255.9 L980.2,254.4 L981.0,252.3 L981.6,249.8 L981.9,246.8 L982.0,243.4" fill="none" stroke="#ffffff" stroke-opacity="0.5" stroke-width="2.4" stroke-linecap="round"/>
    <ellipse class="tr2" cx="946.6" cy="237.6" rx="2.5" ry="2.0" fill="#eef1f5" stroke="#0f1319" stroke-width="1.1"/>
    <ellipse class="tr2" cx="962.2" cy="250.9" rx="2.1" ry="1.7" fill="#eef1f5" stroke="#0f1319" stroke-width="1.1"/>
    <ellipse class="tr2" cx="971.7" cy="257.0" rx="1.7" ry="1.4" fill="#eef1f5" stroke="#0f1319" stroke-width="1.1"/>
    <ellipse class="tr2" cx="976.4" cy="257.6" rx="1.3" ry="1.1" fill="#eef1f5" stroke="#0f1319" stroke-width="1.1"/>
    <ellipse class="tr2" cx="979.3" cy="253.9" rx="1.2" ry="1.0" fill="#eef1f5" stroke="#0f1319" stroke-width="1.1"/>
    <path class="ten tl2" d="M769.9,178.6 L764.1,183.1 L758.5,187.6 L753.1,192.2 L747.8,196.7 L742.8,201.2 L737.8,205.7 L733.1,210.0 L728.6,214.3 L724.2,218.5 L720.0,222.5 L716.0,226.4 L712.3,230.1 L708.7,233.6 L705.3,236.9 L702.1,240.0 L699.1,242.8 L696.3,245.3 L693.8,247.5 L691.6,249.4 L689.6,251.0 L687.9,252.2 L686.7,253.1 L685.9,253.7 L685.5,254.1 L685.4,254.5 L685.3,254.9 L684.7,255.0 L683.8,254.3 L682.7,252.9 L681.7,250.7 L680.7,247.7 L679.5,244.0 L676.5,244.0 L675.5,248.0 L675.2,251.6 L675.2,254.9 L675.7,257.9 L676.7,260.7 L678.6,263.3 L681.2,265.3 L684.3,266.5 L687.5,266.9 L690.7,266.6 L693.9,265.8 L697.0,264.7 L700.2,263.3 L703.5,261.5 L706.9,259.5 L710.4,257.2 L714.1,254.7 L717.9,252.0 L721.9,249.1 L726.0,246.0 L730.2,242.7 L734.6,239.3 L739.2,235.7 L743.9,232.1 L748.7,228.3 L753.6,224.5 L758.7,220.7 L764.0,216.8 L769.3,212.9 L774.8,209.0 L780.4,205.2 L786.1,201.4 Z" fill="url(#vol)" stroke="#0f1319" stroke-width="2.3" stroke-linejoin="round"/>
    <path class="tl2" d="M778.0,184.4 L772.3,188.7 L766.7,193.0 L761.2,197.3 L755.9,201.6 L750.7,205.9 L745.7,210.2 L740.9,214.4 L736.2,218.5 L731.7,222.5 L727.3,226.4 L723.1,230.2 L719.1,233.8 L715.3,237.3 L711.6,240.5 L708.1,243.5 L704.8,246.3 L701.6,248.9 L698.6,251.1 L695.9,253.1 L693.3,254.7 L690.9,256.1 L688.7,257.0 L686.7,257.6 L684.9,257.8 L683.3,257.6 L681.9,257.0 L680.7,255.9 L679.8,254.4 L679.0,252.3 L678.4,249.8 L678.1,246.8 L678.0,243.4" fill="none" stroke="#ffffff" stroke-opacity="0.5" stroke-width="2.4" stroke-linecap="round"/>
    <ellipse class="tl2" cx="718.7" cy="243.8" rx="2.5" ry="2.0" fill="#eef1f5" stroke="#0f1319" stroke-width="1.1"/>
    <ellipse class="tl2" cx="701.8" cy="256.5" rx="2.1" ry="1.7" fill="#eef1f5" stroke="#0f1319" stroke-width="1.1"/>
    <ellipse class="tl2" cx="690.1" cy="262.4" rx="1.7" ry="1.4" fill="#eef1f5" stroke="#0f1319" stroke-width="1.1"/>
    <ellipse class="tl2" cx="681.3" cy="261.4" rx="1.3" ry="1.1" fill="#eef1f5" stroke="#0f1319" stroke-width="1.1"/>
    <ellipse class="tl2" cx="677.6" cy="254.8" rx="1.2" ry="1.0" fill="#eef1f5" stroke="#0f1319" stroke-width="1.1"/>
    <path class="ten tr3" d="M897.8,194.3 L904.5,195.4 L911.1,196.8 L917.6,198.3 L923.8,200.1 L929.9,202.0 L935.8,204.0 L941.5,206.2 L947.0,208.4 L952.4,210.7 L957.5,213.0 L962.4,215.3 L967.2,217.6 L971.7,219.8 L976.0,221.9 L980.1,223.9 L984.0,225.7 L987.7,227.4 L991.2,228.9 L994.5,230.1 L997.7,231.1 L1000.8,231.7 L1003.9,232.0 L1007.0,231.7 L1010.2,230.5 L1012.9,228.4 L1014.5,225.6 L1015.3,222.6 L1015.4,219.5 L1015.1,216.2 L1014.3,212.5 L1013.2,208.4 L1011.5,203.7 L1008.5,204.3 L1008.3,209.1 L1008.2,213.1 L1007.9,216.3 L1007.3,218.7 L1006.6,220.3 L1005.9,220.9 L1005.7,220.6 L1005.8,220.1 L1005.9,219.7 L1005.4,219.3 L1004.3,218.7 L1002.6,217.9 L1000.5,216.7 L998.0,215.1 L995.2,213.3 L992.0,211.3 L988.5,209.0 L984.7,206.5 L980.6,203.9 L976.3,201.1 L971.6,198.3 L966.7,195.3 L961.5,192.4 L956.0,189.4 L950.2,186.5 L944.2,183.7 L937.8,180.9 L931.2,178.3 L924.4,175.8 L917.3,173.5 L909.9,171.5 L902.2,169.7 Z" fill="url(#vol)" stroke="#0f1319" stroke-width="2.3" stroke-linejoin="round"/>
    <path class="tr3" d="M900.0,177.0 L907.2,178.5 L914.2,180.3 L921.0,182.4 L927.5,184.6 L933.9,186.9 L940.0,189.5 L945.9,192.1 L951.5,194.7 L956.9,197.5 L962.1,200.2 L967.0,202.9 L971.7,205.6 L976.2,208.2 L980.4,210.7 L984.3,213.0 L988.0,215.2 L991.4,217.2 L994.6,218.9 L997.5,220.4 L1000.2,221.6 L1002.5,222.5 L1004.6,223.1 L1006.5,223.3 L1008.0,223.0 L1009.3,222.4 L1010.2,221.3 L1010.9,219.6 L1011.3,217.5 L1011.5,214.8 L1011.3,211.6 L1010.8,207.7 L1010.0,203.4" fill="none" stroke="#ffffff" stroke-opacity="0.5" stroke-width="2.4" stroke-linecap="round"/>
    <ellipse class="tr3" cx="977.1" cy="208.1" rx="2.2" ry="1.8" fill="#eef1f5" stroke="#0f1319" stroke-width="1.1"/>
    <ellipse class="tr3" cx="994.8" cy="218.6" rx="1.9" ry="1.5" fill="#eef1f5" stroke="#0f1319" stroke-width="1.1"/>
    <ellipse class="tr3" cx="1004.6" cy="223.0" rx="1.5" ry="1.2" fill="#eef1f5" stroke="#0f1319" stroke-width="1.1"/>
    <ellipse class="tr3" cx="1008.2" cy="222.6" rx="1.2" ry="1.0" fill="#eef1f5" stroke="#0f1319" stroke-width="1.1"/>
    <ellipse class="tr3" cx="1010.0" cy="216.9" rx="1.2" ry="1.0" fill="#eef1f5" stroke="#0f1319" stroke-width="1.1"/>
    <path class="ten tl3" d="M757.8,169.7 L750.1,171.5 L742.7,173.5 L735.6,175.8 L728.8,178.3 L722.2,180.9 L715.8,183.7 L709.8,186.5 L704.0,189.4 L698.5,192.4 L693.3,195.3 L688.4,198.3 L683.7,201.1 L679.4,203.9 L675.3,206.5 L671.5,209.0 L668.0,211.3 L664.8,213.3 L662.0,215.1 L659.5,216.7 L657.4,217.9 L655.7,218.7 L654.6,219.3 L654.1,219.7 L654.2,220.1 L654.3,220.6 L654.1,220.9 L653.4,220.3 L652.7,218.7 L652.1,216.3 L651.8,213.1 L651.7,209.1 L651.5,204.3 L648.5,203.7 L646.8,208.4 L645.7,212.5 L644.9,216.2 L644.6,219.5 L644.7,222.6 L645.5,225.6 L647.1,228.4 L649.8,230.5 L653.0,231.7 L656.1,232.0 L659.2,231.7 L662.3,231.1 L665.5,230.1 L668.8,228.9 L672.3,227.4 L676.0,225.7 L679.9,223.9 L684.0,221.9 L688.3,219.8 L692.8,217.6 L697.6,215.3 L702.5,213.0 L707.6,210.7 L713.0,208.4 L718.5,206.2 L724.2,204.0 L730.1,202.0 L736.2,200.1 L742.4,198.3 L748.9,196.8 L755.5,195.4 L762.2,194.3 Z" fill="url(#vol)" stroke="#0f1319" stroke-width="2.3" stroke-linejoin="round"/>
    <path class="tl3" d="M760.0,177.0 L752.8,178.5 L745.8,180.3 L739.0,182.4 L732.5,184.6 L726.1,186.9 L720.0,189.5 L714.1,192.1 L708.5,194.7 L703.1,197.5 L697.9,200.2 L693.0,202.9 L688.3,205.6 L683.8,208.2 L679.6,210.7 L675.7,213.0 L672.0,215.2 L668.6,217.2 L665.4,218.9 L662.5,220.4 L659.8,221.6 L657.5,222.5 L655.4,223.1 L653.5,223.3 L652.0,223.0 L650.7,222.4 L649.8,221.3 L649.1,219.6 L648.7,217.5 L648.5,214.8 L648.7,211.6 L649.2,207.7 L650.0,203.4" fill="none" stroke="#ffffff" stroke-opacity="0.5" stroke-width="2.4" stroke-linecap="round"/>
    <ellipse class="tl3" cx="686.5" cy="214.6" rx="2.2" ry="1.8" fill="#eef1f5" stroke="#0f1319" stroke-width="1.1"/>
    <ellipse class="tl3" cx="668.1" cy="224.1" rx="1.9" ry="1.5" fill="#eef1f5" stroke="#0f1319" stroke-width="1.1"/>
    <ellipse class="tl3" cx="656.3" cy="228.1" rx="1.5" ry="1.2" fill="#eef1f5" stroke="#0f1319" stroke-width="1.1"/>
    <ellipse class="tl3" cx="648.5" cy="225.0" rx="1.2" ry="1.0" fill="#eef1f5" stroke="#0f1319" stroke-width="1.1"/>
    <ellipse class="tl3" cx="647.1" cy="216.9" rx="1.2" ry="1.0" fill="#eef1f5" stroke="#0f1319" stroke-width="1.1"/></g>
  <!-- eyes -->
  <ellipse cx="798" cy="132" rx="21" ry="25" fill="#ffffff" stroke="#0f1319" stroke-width="2.2"/>
  <ellipse cx="862" cy="132" rx="21" ry="25" fill="#ffffff" stroke="#0f1319" stroke-width="2.2"/>
  <circle cx="802" cy="136" r="9.5" fill="#0f1319"/><circle cx="866" cy="136" r="9.5" fill="#0f1319"/>
  <circle cx="799" cy="132" r="3.2" fill="#fff"/><circle cx="863" cy="132" r="3.2" fill="#fff"/>
  <path class="lid" d="M776,118 a22,22 0 0 1 44,0 Z" fill="url(#vol)" stroke="#0f1319" stroke-width="2"/>
  <path class="lid" d="M840,118 a22,22 0 0 1 44,0 Z" fill="url(#vol)" stroke="#0f1319" stroke-width="2"/>
  <path d="M780,108 q17,-10 32,-2" fill="none" stroke="#0f1319" stroke-width="2.3" stroke-linecap="round"/>
  <path d="M848,106 q15,-8 32,2" fill="none" stroke="#0f1319" stroke-width="2.3" stroke-linecap="round"/>
  <path d="M817,168 q13,11 26,0" fill="none" stroke="#0f1319" stroke-width="2.5" stroke-linecap="round"/>
</g>

<!-- laptop the octopus codes on -->
<g transform="translate(774,298)">
  <rect x="-6" y="12" width="128" height="7" rx="3" fill="#b9bfca" stroke="#0f1319" stroke-width="1.6"/>
  <rect x="0" y="0" width="116" height="14" rx="2" fill="#cfd4dd" stroke="#0f1319" stroke-width="1.8"/>
  <rect x="10" y="-50" width="96" height="50" rx="5" fill="#0e1116" stroke="#0f1319" stroke-width="2"/>
  <g font-family="'Courier New',monospace" font-size="7.5">
    <text x="17" y="-38" fill="#e9edf2">def build_ai():</text>
    <text x="23" y="-28" fill="#9aa4b2">while learning:</text>
    <text x="29" y="-18" fill="#cfd4dd">ship()<tspan class="cur" fill="#fff">_</tspan></text>
  </g>
</g>

<!-- name plate (LEFT) -->
<g transform="translate(64,158)">
  <text x="0" y="0" font-size="46" font-weight="800" fill="#12151b" letter-spacing="1">ANZAR SHAIKH</text>
  <text x="2" y="36" font-family="'Courier New',monospace" font-size="17" fill="#3a4150">
    AI Engineer<tspan fill="#aab0bd"> / </tspan>GenAI<tspan fill="#aab0bd"> / </tspan>Machine Learning<tspan class="cur" fill="#12151b">_</tspan></text>
  <rect x="2" y="54" width="152" height="3" rx="2" fill="#12151b"/>
  <rect x="160" y="54" width="46" height="3" rx="2" fill="#9aa4b2"/>
</g>
</svg>
